<svg xmlns="http://www.w3.org/2000/svg" viewBox="0 0 36 36" width="20" height="20">
    <path fill="#ffac33" d="m34.347 16.893l-8.899-3.294l-3.323-10.891a1 1 0 0 0-1.912 0l-3.322 10.891l-8.9 3.294a1 1 0 0 0 0 1.876l8.895 3.293l3.324 11.223a1 1 0 0 0 1.918-0.001l3.324-11.223l8.896-3.293a0.998 0.998 0 0 0-0.001-1.875"/>
    <path fill="#ffcc4d" d="m14.347 27.894l-2.314-0.856l-0.9-3.3a0.998 0.998 0 0 0-1.929-0.001l-0.9 3.3l-2.313 0.856a1 1 0 0 0 0 1.876l2.301 0.853l0.907 3.622a1 1 0 0 0 1.94-0.001l0.907-3.622l2.301-0.853a0.997 0.997 0 0 0 0-1.874M10.009 6.231l-2.364-0.875l-0.876-2.365a0.999 0.999 0 0 0-1.876 0l-0.875 2.365l-2.365 0.875a1 1 0 0 0 0 1.876l2.365 0.875l0.875 2.365a1 1 0 0 0 1.876 0l0.875-2.365l2.365-0.875a1 1 0 0 0 0-1.876"/>
</svg>
